<?xml version="1.0" standalone="no"?>
<!DOCTYPE svg PUBLIC "-//W3C//DTD SVG 20010904//EN"
 "http://www.w3.org/TR/2001/REC-SVG-20010904/DTD/svg10.dtd">
<svg version="1.0" xmlns="http://www.w3.org/2000/svg"
 width="494.000000pt" height="494.000000pt" viewBox="0 0 494.000000 494.000000"
 preserveAspectRatio="xMidYMid meet">
<metadata>
Created by potrace 1.14, written by Peter Selinger 2001-2017
</metadata>
<g transform="translate(0.000000,494.000000) scale(0.100000,-0.100000)"
fill="#000000" stroke="none">
<path d="M2298 4935 c-2 -2 -26 -6 -53 -9 -349 -41 -591 -109 -870 -247 -552
-272 -989 -753 -1208 -1329 -34 -88 -90 -272 -101 -330 -2 -14 -11 -56 -19
-95 -9 -38 -18 -97 -22 -130 -3 -33 -9 -82 -13 -110 -8 -63 -7 -359 1 -445 36
-346 139 -676 305 -975 54 -97 153 -245 164 -245 4 0 7 -4 5 -8 -9 -29 311
-367 448 -473 194 -150 406 -272 630 -364 122 -50 361 -118 451 -129 17 -2 49
-7 70 -10 150 -25 216 -30 379 -30 135 -1 242 6 315 18 8 2 40 6 70 10 85 12
239 45 258 55 9 5 33 12 53 15 20 3 68 17 105 31 38 14 74 27 79 29 81 23 349
162 487 252 187 123 363 278 520 459 45 51 177 232 202 276 11 19 38 66 61
104 62 107 149 292 161 343 4 15 10 32 14 37 11 16 75 230 86 290 2 11 6 31 9
45 8 40 14 72 20 110 3 20 7 46 10 58 12 64 19 184 19 327 0 144 -4 217 -20
340 -3 22 -7 51 -9 65 -2 14 -4 25 -5 25 -1 0 -3 11 -5 25 -14 97 -87 346
-145 490 -58 147 -200 404 -273 495 -4 6 -33 44 -64 85 -82 107 -250 278 -377
382 -240 197 -490 337 -781 436 -136 47 -330 91 -475 108 -30 3 -66 8 -80 11
-30 5 -397 13 -402 8z"/>
</g>
</svg>
